<?xml version="1.0" encoding="UTF-8"?>
<svg width="24px" height="24px" viewBox="0 0 24 24" version="1.1" xmlns="http://www.w3.org/2000/svg" xmlns:xlink="http://www.w3.org/1999/xlink">
    <title>画板备份</title>
    <g id="画板备份" stroke="none" stroke-width="1" fill="none" fill-rule="evenodd">
        <g id="编组" opacity="0.9" transform="translate(4.000000, 6.000000)" fill="#FFFFFF">
            <path d="M14.3349562,11.0472185 C15.3509244,10.3390534 16,9.29146104 16,8.1274114 C16,5.99401824 13.8424977,4.26469269 11.1805522,4.26469269 C8.51942392,4.26469269 6.36137687,5.99401824 6.36137687,8.1274114 C6.36137687,10.2610662 8.51915154,11.9903918 11.1805522,11.9903918 C11.7307548,11.9903918 12.2616186,11.91476 12.7538048,11.778675 C12.7987471,11.76559 12.8461408,11.7582623 12.8954411,11.7582623 C12.9880494,11.7582623 13.0719417,11.7854793 13.1514759,11.8294452 L14.2061217,12.4156572 C14.2358108,12.4313594 14.2644105,12.4444444 14.2992748,12.4444444 C14.3418958,12.4444444 14.3827712,12.4281769 14.4129088,12.3992205 C14.4430464,12.3702642 14.4599775,12.3309909 14.4599775,12.2900404 C14.4599775,12.2513085 14.4439073,12.2133617 14.4341017,12.1767235 L14.2167444,11.3976372 C14.2065166,11.3657204 14.2008358,11.3326195 14.199857,11.2992373 C14.199857,11.1953417 14.253243,11.1032227 14.3349562,11.0472185 M9.57406966,7.47001645 C9.24146905,7.47001645 8.97184297,7.21095824 8.97184297,6.89139375 C8.97184297,6.57182926 9.24146905,6.31277105 9.57406966,6.31277105 C9.90667028,6.31277105 10.1762963,6.57182926 10.1762963,6.89139375 C10.1762963,7.21095824 9.90667028,7.47001645 9.57406966,7.47001645 M12.7867625,7.47001645 C12.4544619,7.47001645 12.1853529,7.21093166 12.1853529,6.89165545 C12.1787542,6.68097259 12.291969,6.48352268 12.4808452,6.37630839 C12.6697214,6.26909411 12.9043482,6.26909411 13.0932244,6.37630839 C13.2821006,6.48352268 13.3953155,6.68097259 13.3887168,6.89165545 C13.3887168,7.21107541 13.1192126,7.47001645 12.7867625,7.47001645" id="形状"></path>
            <path d="M5.7831194,0 C2.58922066,0 0,2.07529535 0,4.63526245 C0,6.03222671 0.778999694,7.2894422 1.99816145,8.13918798 C2.09621736,8.20644534 2.16022607,8.3166218 2.16022607,8.44145357 C2.16022607,8.48254075 2.15096524,8.51996411 2.13979776,8.55948108 L1.87913248,9.49454165 C1.86714787,9.53850755 1.84808144,9.58404367 1.84808144,9.63010319 C1.84808144,9.73242859 1.93442511,9.81538807 2.04092472,9.81538807 C2.08287086,9.81538807 2.11719043,9.80047106 2.15205475,9.78084343 L3.41861019,9.07765067 C3.51366995,9.0253103 3.61417725,8.99259758 3.72530728,8.99259758 C3.78468557,8.99259758 3.84161247,9.00097204 3.89527085,9.01667414 C4.61148298,9.21399872 5.35646294,9.29744902 6.10071159,9.26372065 C5.97251125,8.89760848 5.90692564,8.51395044 5.90650642,8.1276731 C5.90650642,5.79303125 8.2677471,3.89988036 11.1808246,3.89988036 C11.2862347,3.89988036 11.3132001,3.90328249 11.4169759,3.90799312 C10.9814443,1.69347241 8.66814204,0 5.7831194,0 M3.85550373,3.80959324 C3.47754848,3.80959324 3.17115522,3.51520891 3.17115522,3.15206744 C3.17115522,2.78892597 3.47754848,2.49454165 3.85550373,2.49454165 C4.0369431,2.49461102 4.21091852,2.56394699 4.33913889,2.68728907 C4.46735927,2.81063115 4.53931582,2.97787039 4.53917151,3.1521983 C4.53917151,3.51506319 4.233171,3.80930434 3.85550373,3.80959324 M7.71073508,3.80959324 C7.52934292,3.80952385 7.35540881,3.7402238 7.22719627,3.61693833 C7.09898373,3.49365286 7.02699526,3.32648087 7.0270673,3.1521983 C7.02692299,2.97787039 7.09887954,2.81063115 7.22709991,2.68728907 C7.35532029,2.56394699 7.5292957,2.49461102 7.71073508,2.49454165 C7.89217445,2.49461102 8.06614987,2.56394699 8.19437024,2.68728907 C8.32259062,2.81063115 8.39454717,2.97787039 8.39440286,3.1521983 C8.3944749,3.32648087 8.32248643,3.49365286 8.19427389,3.61693833 C8.06606135,3.7402238 7.89212723,3.80952385 7.71073508,3.80959324" id="形状"></path>
        </g>
        <path d="M12,0 C18.627417,0 24,5.372583 24,12 C24,18.627417 18.627417,24 12,24 C5.372583,24 0,18.627417 0,12 C0,5.372583 5.372583,0 12,0 Z M15.1805522,10.2646927 C12.5194239,10.2646927 10.3613769,11.9940182 10.3613769,14.1274114 C10.3613769,16.2610662 12.5191515,17.9903918 15.1805522,17.9903918 C15.7307548,17.9903918 16.2616186,17.91476 16.7538048,17.778675 C16.7987471,17.76559 16.8461408,17.7582623 16.8954411,17.7582623 C16.9880494,17.7582623 17.0719417,17.7854793 17.1514759,17.8294452 L18.2061217,18.4156572 C18.2358108,18.4313594 18.2644105,18.4444444 18.2992748,18.4444444 C18.3418958,18.4444444 18.3827712,18.4281769 18.4129088,18.3992205 C18.4430464,18.3702642 18.4599775,18.3309909 18.4599775,18.2900404 C18.4599775,18.2513085 18.4439073,18.2133617 18.4341017,18.1767235 L18.2167444,17.3976372 C18.2065166,17.3657204 18.2008358,17.3326195 18.199857,17.2992373 C18.199857,17.1953417 18.253243,17.1032227 18.3349562,17.0472185 C19.3509244,16.3390534 20,15.291461 20,14.1274114 C20,11.9940182 17.8424977,10.2646927 15.1805522,10.2646927 Z M9.7831194,6 C6.58922066,6 4,8.07529535 4,10.6352624 C4,12.0322267 4.77899969,13.2894422 5.99816145,14.139188 C6.09621736,14.2064453 6.16022607,14.3166218 6.16022607,14.4414536 C6.16022607,14.4825408 6.15096524,14.5199641 6.13979776,14.5594811 L5.87913248,15.4945416 C5.86714787,15.5385076 5.84808144,15.5840437 5.84808144,15.6301032 C5.84808144,15.7324286 5.93442511,15.8153881 6.04092472,15.8153881 C6.08287086,15.8153881 6.11719043,15.8004711 6.15205475,15.7808434 L7.41861019,15.0776507 C7.51366995,15.0253103 7.61417725,14.9925976 7.72530728,14.9925976 C7.78468557,14.9925976 7.84161247,15.000972 7.89527085,15.0166741 C8.61148298,15.2139987 9.35646294,15.297449 10.1007116,15.2637207 C9.97251125,14.8976085 9.90692564,14.5139504 9.90650642,14.1276731 C9.90650642,11.7930313 12.2677471,9.89988036 15.1808246,9.89988036 C15.2862347,9.89988036 15.3132001,9.90328249 15.4169759,9.90799312 C14.9814443,7.69347241 12.668142,6 9.7831194,6 Z M13.5740697,12.312771 C13.9066703,12.312771 14.1762963,12.5718293 14.1762963,12.8913937 C14.1762963,13.2109582 13.9066703,13.4700164 13.5740697,13.4700164 C13.241469,13.4700164 12.971843,13.2109582 12.971843,12.8913937 C12.971843,12.5718293 13.241469,12.312771 13.5740697,12.312771 Z M17.0932244,12.3763084 C17.2821006,12.4835227 17.3953155,12.6809726 17.3887168,12.8916555 C17.3887168,13.2110754 17.1192126,13.4700164 16.7867625,13.4700164 C16.4544619,13.4700164 16.1853529,13.2109317 16.1853529,12.8916555 C16.1787542,12.6809726 16.291969,12.4835227 16.4808452,12.3763084 C16.6697214,12.2690941 16.9043482,12.2690941 17.0932244,12.3763084 Z M7.85550373,8.49454165 C8.0369431,8.49461102 8.21091852,8.56394699 8.33913889,8.68728907 C8.46735927,8.81063115 8.53931582,8.97787039 8.53917151,9.1521983 C8.53917151,9.51506319 8.233171,9.80930434 7.85550373,9.80959324 C7.47754848,9.80959324 7.17115522,9.51520891 7.17115522,9.15206744 C7.17115522,8.78892597 7.47754848,8.49454165 7.85550373,8.49454165 Z M11.7107351,8.49454165 C11.8921745,8.49461102 12.0661499,8.56394699 12.1943702,8.68728907 C12.3225906,8.81063115 12.3945472,8.97787039 12.3944029,9.1521983 C12.3944749,9.32648087 12.3224864,9.49365286 12.1942739,9.61693833 C12.0660613,9.7402238 11.8921272,9.80952385 11.7107351,9.80959324 C11.5293429,9.80952385 11.3554088,9.7402238 11.2271963,9.61693833 C11.0989837,9.49365286 11.0269953,9.32648087 11.0270673,9.1521983 C11.026923,8.97787039 11.0988795,8.81063115 11.2270999,8.68728907 C11.3553203,8.56394699 11.5292957,8.49461102 11.7107351,8.49454165 Z" id="形状结合" fill="#DDDDDD"></path>
    </g>
</svg>