<?xml version="1.0" encoding="UTF-8"?>
<svg width="24px" height="24px" viewBox="0 0 24 24" version="1.1" xmlns="http://www.w3.org/2000/svg" xmlns:xlink="http://www.w3.org/1999/xlink">
    <title>微信</title>
    <defs>
        <linearGradient x1="50%" y1="0%" x2="50%" y2="99.3757341%" id="linearGradient-1">
            <stop stop-color="#59DD7A" offset="0%"></stop>
            <stop stop-color="#4AC366" offset="100%"></stop>
        </linearGradient>
    </defs>
    <g id="微信" stroke="none" stroke-width="1" fill="none" fill-rule="evenodd">
        <path d="M12,0 C18.627417,0 24,5.372583 24,12 C24,18.627417 18.627417,24 12,24 C5.372583,24 0,18.627417 0,12 C0,5.372583 5.372583,0 12,0 Z M15.1805522,10.2646927 C12.5194239,10.2646927 10.3613769,11.9940182 10.3613769,14.1274114 C10.3613769,16.2610662 12.5191515,17.9903918 15.1805522,17.9903918 C15.7307548,17.9903918 16.2616186,17.91476 16.7538048,17.778675 C16.7987471,17.76559 16.8461408,17.7582623 16.8954411,17.7582623 C16.9880494,17.7582623 17.0719417,17.7854793 17.1514759,17.8294452 L18.2061217,18.4156572 C18.2358108,18.4313594 18.2644105,18.4444444 18.2992748,18.4444444 C18.3418958,18.4444444 18.3827712,18.4281769 18.4129088,18.3992205 C18.4430464,18.3702642 18.4599775,18.3309909 18.4599775,18.2900404 C18.4599775,18.2513085 18.4439073,18.2133617 18.4341017,18.1767235 L18.2167444,17.3976372 C18.2065166,17.3657204 18.2008358,17.3326195 18.199857,17.2992373 C18.199857,17.1953417 18.253243,17.1032227 18.3349562,17.0472185 C19.3509244,16.3390534 20,15.291461 20,14.1274114 C20,11.9940182 17.8424977,10.2646927 15.1805522,10.2646927 Z M9.7831194,6 C6.58922066,6 4,8.07529535 4,10.6352624 C4,12.0322267 4.77899969,13.2894422 5.99816145,14.139188 C6.09621736,14.2064453 6.16022607,14.3166218 6.16022607,14.4414536 C6.16022607,14.4825408 6.15096524,14.5199641 6.13979776,14.5594811 L5.87913248,15.4945416 C5.86714787,15.5385076 5.84808144,15.5840437 5.84808144,15.6301032 C5.84808144,15.7324286 5.93442511,15.8153881 6.04092472,15.8153881 C6.08287086,15.8153881 6.11719043,15.8004711 6.15205475,15.7808434 L7.41861019,15.0776507 C7.51366995,15.0253103 7.61417725,14.9925976 7.72530728,14.9925976 C7.78468557,14.9925976 7.84161247,15.000972 7.89527085,15.0166741 C8.61148298,15.2139987 9.35646294,15.297449 10.1007116,15.2637207 C9.97251125,14.8976085 9.90692564,14.5139504 9.90650642,14.1276731 C9.90650642,11.7930313 12.2677471,9.89988036 15.1808246,9.89988036 C15.2862347,9.89988036 15.3132001,9.90328249 15.4169759,9.90799312 C14.9814443,7.69347241 12.668142,6 9.7831194,6 Z M13.5740697,12.312771 C13.9066703,12.312771 14.1762963,12.5718293 14.1762963,12.8913937 C14.1762963,13.2109582 13.9066703,13.4700164 13.5740697,13.4700164 C13.241469,13.4700164 12.971843,13.2109582 12.971843,12.8913937 C12.971843,12.5718293 13.241469,12.312771 13.5740697,12.312771 Z M17.0932244,12.3763084 C17.2821006,12.4835227 17.3953155,12.6809726 17.3887168,12.8916555 C17.3887168,13.2110754 17.1192126,13.4700164 16.7867625,13.4700164 C16.4544619,13.4700164 16.1853529,13.2109317 16.1853529,12.8916555 C16.1787542,12.6809726 16.291969,12.4835227 16.4808452,12.3763084 C16.6697214,12.2690941 16.9043482,12.2690941 17.0932244,12.3763084 Z M7.85550373,8.49454165 C8.0369431,8.49461102 8.21091852,8.56394699 8.33913889,8.68728907 C8.46735927,8.81063115 8.53931582,8.97787039 8.53917151,9.1521983 C8.53917151,9.51506319 8.233171,9.80930434 7.85550373,9.80959324 C7.47754848,9.80959324 7.17115522,9.51520891 7.17115522,9.15206744 C7.17115522,8.78892597 7.47754848,8.49454165 7.85550373,8.49454165 Z M11.7107351,8.49454165 C11.8921745,8.49461102 12.0661499,8.56394699 12.1943702,8.68728907 C12.3225906,8.81063115 12.3945472,8.97787039 12.3944029,9.1521983 C12.3944749,9.32648087 12.3224864,9.49365286 12.1942739,9.61693833 C12.0660613,9.7402238 11.8921272,9.80952385 11.7107351,9.80959324 C11.5293429,9.80952385 11.3554088,9.7402238 11.2271963,9.61693833 C11.0989837,9.49365286 11.0269953,9.32648087 11.0270673,9.1521983 C11.026923,8.97787039 11.0988795,8.81063115 11.2270999,8.68728907 C11.3553203,8.56394699 11.5292957,8.49461102 11.7107351,8.49454165 Z" id="形状结合" fill="url(#linearGradient-1)"></path>
    </g>
</svg>