<?xml version="1.0" encoding="UTF-8"?>
<svg width="16px" height="16px" viewBox="0 0 16 16" version="1.1" xmlns="http://www.w3.org/2000/svg" xmlns:xlink="http://www.w3.org/1999/xlink">
    <title>静音</title>
    <g id="静音" stroke="none" stroke-width="1" fill="none" fill-rule="evenodd">
        <path d="M3.51334196,4.98132668 L8.62334196,9.26932668 L8.62334196,14.585376 C8.62334196,14.8836098 8.40575234,15.1310228 8.12066507,15.177523 L8.02334196,15.185376 C6.70163844,15.185376 5.53189837,14.2616253 4.47819635,12.7601083 C4.12785358,12.2608727 3.81477205,11.7291907 3.54182939,11.1977393 L3.36634196,10.845376 L1.72334196,10.8455272 C1.04624077,10.8455272 0.496126182,10.3216164 0.430006785,9.65781637 L0.423341955,9.52330497 L0.423341955,6.59324425 C0.423341955,5.86711613 1.00110069,5.27102203 1.72334196,5.27102203 L3.36834196,5.270376 L3.51334196,4.98132668 Z M12.4398439,12.47309 L13.3636867,13.2472405 C13.0557232,13.5566457 12.7206515,13.836241 12.3612396,14.0811836 C12.0874126,14.2677993 11.71415,14.1971006 11.5275343,13.9232736 C11.3409186,13.6494466 11.4116174,13.2761841 11.6854443,13.0895684 C11.9532722,12.9070412 12.2053345,12.7005735 12.4398439,12.47309 Z M2.89095791,1.61065026 L15.7605046,12.4094821 C16.0143494,12.6224832 16.0474597,13.0009365 15.8344587,13.2547813 C15.6214576,13.5086261 15.2430042,13.5417365 14.9891594,13.3287354 L2.11961278,2.52990359 C1.86576798,2.31690252 1.8326576,1.93844916 2.04565868,1.68460436 C2.25865975,1.43075956 2.63711311,1.39764918 2.89095791,1.61065026 Z M10.6892869,11.003711 L11.6168213,11.7814321 C11.5820782,11.8340277 11.5465594,11.8855399 11.5102844,11.9359285 C11.3166796,12.2048594 10.9417204,12.2659232 10.6727895,12.0723185 C10.4038586,11.8787137 10.3427947,11.5037544 10.5363995,11.2348235 C10.5891704,11.161521 10.6401903,11.0844037 10.6892869,11.003711 Z M12.4527906,1.09529685 C14.4136415,2.48028923 15.623342,4.90475636 15.623342,7.55647635 C15.623342,8.59598866 15.4374089,9.60034132 15.0934488,10.5207105 L14.1074423,9.6938511 C14.313119,9.0204357 14.423342,8.29992212 14.423342,7.55647635 C14.423342,5.28798444 13.3972782,3.23155975 11.7604831,2.07545515 C11.4898199,1.88427971 11.4253823,1.50988548 11.6165577,1.23922224 C11.8077332,0.968558998 12.1821274,0.904121405 12.4527906,1.09529685 Z M11.5102839,4.2348228 C11.6883386,4.48215274 11.8481766,4.75654879 11.9874811,5.05323864 C12.3996337,5.93105186 12.623342,6.98395027 12.623342,8.085376 L12.614342,8.44132668 L11.3902894,7.41333481 C11.3229475,6.73563947 11.1544802,6.10257692 10.9012543,5.56324981 C10.7927687,5.33219788 10.6702118,5.1218028 10.5364,4.9359292 C10.3427948,4.66699859 10.4038581,4.29203924 10.6727888,4.09843406 C10.9417194,3.90482887 11.3166787,3.96589219 11.5102839,4.2348228 Z M8.02334196,0.985375999 C8.35471281,0.985375999 8.62334196,1.25400515 8.62334196,1.585376 L8.62334196,5.09232668 L5.33693037,2.33468441 C6.1013487,1.54171999 6.9242292,1.05796949 7.81625705,0.992908007 L8.02334196,0.985375999 Z" id="形状结合" fill="#EEEEEE" fill-rule="nonzero"></path>
    </g>
</svg>