<?xml version="1.0" encoding="UTF-8"?>
<svg width="16px" height="16px" viewBox="0 0 16 16" version="1.1" xmlns="http://www.w3.org/2000/svg" xmlns:xlink="http://www.w3.org/1999/xlink">
    <title>音量</title>
    <g id="音量" stroke="none" stroke-width="1" fill="none" fill-rule="evenodd">
        <path d="M8.02334196,1.00004932 C6.70396862,1.00004932 5.5340563,1.91239711 4.48024604,3.39531311 C4.12966485,3.88864904 3.81637284,4.41404349 3.54324155,4.93921999 L3.36834196,5.28504932 L1.72334196,5.28569535 C1.00110069,5.28569535 0.423341955,5.88178945 0.423341955,6.60791757 L0.423341955,9.53797828 L0.430006785,9.67248969 C0.496126182,10.3362897 1.04624077,10.8602005 1.72334196,10.8602005 L3.36634196,10.8600493 L3.54182939,11.2124127 C3.81477205,11.7438641 4.12785358,12.275546 4.47819635,12.7747817 C5.53189837,14.2762986 6.70163844,15.2000493 8.02334196,15.2000493 C8.35471281,15.2000493 8.62334196,14.9314202 8.62334196,14.6000493 L8.62334196,1.60004932 C8.62334196,1.26867847 8.35471281,1.00004932 8.02334196,1.00004932 Z M12.4527906,1.10997016 C14.4136415,2.49496255 15.623342,4.91942968 15.623342,7.57114966 C15.623342,10.2657932 14.3739465,12.7241781 12.3612396,14.0958569 C12.0874126,14.2824726 11.71415,14.2117739 11.5275343,13.9379469 C11.3409186,13.6641199 11.4116174,13.2908574 11.6854443,13.1042417 C13.3640309,11.960269 14.423342,9.87590561 14.423342,7.57114966 C14.423342,5.30265776 13.3972782,3.24623307 11.7604831,2.09012847 C11.4898199,1.89895302 11.4253823,1.5245588 11.6165577,1.25389556 C11.8077332,0.983232315 12.1821274,0.918794722 12.4527906,1.10997016 Z M11.5102839,4.24949612 C11.6883386,4.49682606 11.8481766,4.77122211 11.9874811,5.06791196 C12.3996337,5.94572518 12.623342,6.99862358 12.623342,8.10004932 C12.623342,9.19191385 12.4034986,10.2361703 11.9979931,11.1096752 C11.8562249,11.4150087 11.6928295,11.6970337 11.5102844,11.9506018 C11.3166796,12.2195327 10.9417204,12.2805966 10.6727895,12.0869918 C10.4038586,11.893387 10.3427947,11.5184277 10.5363995,11.2494968 C10.6736463,11.0588512 10.7990496,10.8424017 10.9095746,10.6043583 C11.2398075,9.89299921 11.423342,9.02120991 11.423342,8.10004932 C11.423342,7.17096703 11.236638,6.29223193 10.9012543,5.57792312 C10.7927687,5.34687119 10.6702118,5.13647611 10.5364,4.95060251 C10.3427948,4.68167191 10.4038581,4.30671256 10.6727888,4.11310737 C10.9417194,3.91950219 11.3166787,3.98056551 11.5102839,4.24949612 Z" id="形状结合" fill="#EEEEEE" fill-rule="nonzero"></path>
    </g>
</svg>