<?xml version="1.0" encoding="UTF-8"?>
<svg width="16px" height="16px" viewBox="0 0 16 16" version="1.1" xmlns="http://www.w3.org/2000/svg" xmlns:xlink="http://www.w3.org/1999/xlink">
    <title>暂停_白</title>
    <g id="暂停_白" stroke="none" stroke-width="1" fill="none" fill-rule="evenodd">
        <path d="M3.5,0 C4.6045695,-2.02906125e-16 5.5,0.8954305 5.5,2 L5.5,14 C5.5,15.1045695 4.6045695,16 3.5,16 C2.3954305,16 1.5,15.1045695 1.5,14 L1.5,2 C1.5,0.8954305 2.3954305,2.02906125e-16 3.5,0 Z M12.5,0 C13.6045695,-2.02906125e-16 14.5,0.8954305 14.5,2 L14.5,14 C14.5,15.1045695 13.6045695,16 12.5,16 C11.3954305,16 10.5,15.1045695 10.5,14 L10.5,2 C10.5,0.8954305 11.3954305,2.02906125e-16 12.5,0 Z" id="形状结合" fill="#FFFFFF"></path>
    </g>
</svg>