<?xml version="1.0" encoding="UTF-8"?>
<svg width="12px" height="12px" viewBox="0 0 12 12" version="1.1" xmlns="http://www.w3.org/2000/svg" xmlns:xlink="http://www.w3.org/1999/xlink">
    <title>播放</title>
    <g id="播放" stroke="none" stroke-width="1" fill="none" fill-rule="evenodd">
        <path d="M2.625,0 C3.45342712,-1.52179594e-16 4.125,0.671572875 4.125,1.5 L4.125,10.5 C4.125,11.3284271 3.45342712,12 2.625,12 C1.79657288,12 1.125,11.3284271 1.125,10.5 L1.125,1.5 C1.125,0.671572875 1.79657288,1.52179594e-16 2.625,0 Z M9.375,0 C10.2034271,-1.52179594e-16 10.875,0.671572875 10.875,1.5 L10.875,10.5 C10.875,11.3284271 10.2034271,12 9.375,12 C8.54657288,12 7.875,11.3284271 7.875,10.5 L7.875,1.5 C7.875,0.671572875 8.54657288,1.52179594e-16 9.375,0 Z" id="形状结合" fill="#666666"></path>
    </g>
</svg>